<?xml version="1.0" encoding="utf-8"?>
<!-- Generator: Adobe Illustrator 19.0.0, SVG Export Plug-In . SVG Version: 6.00 Build 0)  -->
<svg version="1.1" id="图层_1" xmlns="http://www.w3.org/2000/svg" xmlns:xlink="http://www.w3.org/1999/xlink" x="0px" y="0px"
	 viewBox="-272 398.5 51 45.4" style="enable-background:new -272 398.5 51 45.4;" xml:space="preserve">
<style type="text/css">
	.st0{fill:#F2F2F2;}
</style>
<g id="XMLID_23_">
	<g id="XMLID_223_">
		<path id="XMLID_249_" class="st0" d="M-248,430.3l-5.1-8.6h-11l5.1,8.6H-248z"/>
		<path id="XMLID_247_" class="st0" d="M-264.1,420.3h11l5.1-8.7h-11L-264.1,420.3z"/>
		<path id="XMLID_244_" class="st0" d="M-236.2,430.7L-236.2,430.7h-10.2c-0.1,0-0.3-0.1-0.3-0.2l-5.1-8.6c-0.1-0.1-0.1-0.3,0-0.4
			c0.1-0.1,0.2-0.2,0.3-0.2h10.2c0.1,0,0.3,0.1,0.3,0.2l5.1,8.7c0.1,0.1,0.1,0.3,0,0.4C-236,430.6-236.1,430.7-236.2,430.7z
			 M-246.3,429.9h9.4l-4.7-7.9h-9.3L-246.3,429.9z"/>
		<path id="XMLID_241_" class="st0" d="M-229.9,441.4h-10.3c-0.1,0-0.3-0.1-0.3-0.2l-5.5-9.4c-0.1-0.1-0.1-0.3,0-0.4
			s0.2-0.2,0.3-0.2l0,0h10.2c0.1,0,0.3,0.1,0.3,0.2l5.5,9.3c0.1,0.1,0.1,0.3,0,0.4C-229.8,441.2-229.8,441.4-229.9,441.4z
			 M-240,440.6h9.4l-5.1-8.6h-9.4L-240,440.6z"/>
		<path id="XMLID_238_" class="st0" d="M-228.8,440.7c-0.1,0-0.3-0.1-0.3-0.2l-5.5-9.3c-0.1-0.1-0.1-0.3,0-0.4l5.1-8.7
			c0.1-0.1,0.2-0.2,0.3-0.2l0,0c0.1,0,0.3,0.1,0.3,0.2l5.5,9.3c0.1,0.1,0.1,0.3,0,0.4l-5,8.7C-228.5,440.6-228.6,440.7-228.8,440.7z
			 M-233.8,431l5.1,8.6l4.7-7.9l-5.1-8.6L-233.8,431z"/>
		<path id="XMLID_236_" class="st0" d="M-240.2,401l-5.5,9.4h10.2l5.5-9.3L-240.2,401L-240.2,401z"/>
		<path id="XMLID_234_" class="st0" d="M-247.2,410.3l5.5-9.4h-11l-5.5,9.4H-247.2z"/>
		<path id="XMLID_232_" class="st0" d="M-258.7,430.9h-11l5.5,9.4h11L-258.7,430.9z"/>
		<path id="XMLID_230_" class="st0" d="M-252.3,438.9l4.3-7.3h-8.6L-252.3,438.9z"/>
		<path id="XMLID_227_" class="st0" d="M-229.2,420c-0.1,0-0.3-0.1-0.3-0.2l-5.1-8.7c-0.1-0.1-0.1-0.3,0-0.4l5.5-9.2
			c0.1-0.2,0.5-0.2,0.7,0l5.1,8.7c0.1,0.1,0.1,0.3,0,0.4l-5.5,9.4C-228.9,420-229,420-229.2,420z M-233.8,411l4.7,7.9l5.1-8.6
			l-4.7-7.9L-233.8,411z"/>
		<path id="XMLID_224_" class="st0" d="M-235.1,430c-0.1,0-0.3-0.1-0.3-0.2l-5.1-8.7c-0.1-0.1-0.1-0.3,0-0.4l5.1-8.7
			c0.1-0.1,0.2-0.2,0.3-0.2l0,0c0.1,0,0.3,0.1,0.3,0.2l5.1,8.7c0.1,0.1,0.1,0.3,0,0.4l-5.1,8.7C-234.8,430-234.9,430-235.1,430z
			 M-239.7,421l4.7,7.9l4.7-7.9l-4.7-7.9L-239.7,421z"/>
	</g>
</g>
</svg>
